<?xml version="1.0" standalone="no"?>
<!DOCTYPE svg PUBLIC "-//W3C//DTD SVG 20010904//EN"
 "http://www.w3.org/TR/2001/REC-SVG-20010904/DTD/svg10.dtd">
<svg version="1.0" xmlns="http://www.w3.org/2000/svg"
 width="512.000000pt" height="512.000000pt" viewBox="0 0 512.000000 512.000000"
 preserveAspectRatio="xMidYMid meet">
<metadata>
Created by potrace 1.11, written by Peter Selinger 2001-2013
</metadata>
<g transform="translate(0.000000,512.000000) scale(0.100000,-0.100000)"
fill="#000000" stroke="none">
<path d="M2757 3884 c-1 -1 -38 -5 -82 -8 -44 -3 -95 -10 -112 -15 -18 -5 -33
-8 -33 -6 0 2 -18 -2 -40 -10 -22 -8 -40 -12 -40 -10 0 2 -21 -5 -47 -15 -27
-10 -64 -24 -83 -32 -19 -7 -38 -17 -42 -23 -4 -5 -8 -7 -8 -2 0 4 -18 -4 -40
-18 -22 -14 -42 -25 -46 -25 -12 0 -213 -149 -252 -187 -7 -7 -18 -13 -24 -13
-6 0 -9 -2 -6 -5 2 -3 -32 -42 -77 -87 -45 -46 -105 -114 -133 -153 -29 -38
-56 -74 -60 -80 -68 -86 -207 -376 -238 -495 -43 -168 -51 -206 -47 -212 2 -5
1 -8 -4 -8 -4 0 -8 -12 -9 -27 0 -16 -4 -62 -9 -103 -13 -117 -9 -347 9 -450
25 -144 35 -184 73 -300 32 -99 48 -135 110 -260 68 -137 100 -175 136 -166
42 10 45 46 8 106 -17 28 -31 55 -31 60 0 6 -5 10 -10 10 -6 0 -9 3 -8 8 1 4
-10 30 -24 57 -49 95 -123 304 -134 380 -2 11 -5 31 -8 45 -13 58 -15 75 -22
148 -4 42 -7 124 -7 182 0 91 3 137 17 270 2 14 6 36 9 50 4 14 9 36 11 50 3
14 12 50 21 80 8 30 17 62 19 70 17 68 153 363 175 380 3 3 12 17 20 32 8 15
22 37 33 47 10 11 18 23 18 27 0 14 222 264 235 264 2 0 15 10 27 23 71 67
221 169 330 222 48 24 89 41 91 39 2 -2 20 3 40 11 20 8 53 18 74 21 21 3 41
8 45 10 32 20 357 18 390 -2 5 -3 24 -8 41 -11 18 -3 50 -11 72 -19 22 -8 47
-16 56 -19 27 -6 164 -77 167 -86 2 -5 9 -9 16 -9 12 0 24 -8 109 -76 59 -48
157 -149 157 -163 0 -5 4 -11 8 -13 32 -13 110 -167 138 -273 13 -47 13 -228
0 -244 -6 -8 -10 -17 -9 -20 6 -13 -10 -77 -23 -98 -8 -13 -12 -23 -9 -23 2 0
-14 -30 -36 -67 -78 -129 -230 -248 -331 -260 -69 -7 -118 -9 -118 -3 0 3 -12
7 -27 8 -49 4 -132 50 -182 101 -66 67 -91 134 -79 205 5 28 14 53 19 54 5 2
9 10 9 17 0 7 19 30 42 49 32 27 51 36 79 36 48 0 67 -8 80 -31 9 -17 7 -18
-15 -8 -20 10 -30 9 -50 -5 -37 -23 -48 -52 -41 -96 6 -33 13 -42 48 -59 81
-39 159 5 174 99 3 13 6 26 8 28 2 2 -3 22 -11 44 -27 77 -111 131 -199 127
-128 -5 -236 -132 -247 -289 0 -3 0 -7 1 -10 1 -3 4 -21 6 -41 6 -59 44 -128
106 -190 46 -46 124 -101 149 -104 3 0 10 -4 16 -8 7 -3 29 -9 49 -13 21 -3
47 -8 59 -11 91 -22 268 27 351 97 53 44 141 134 162 165 30 44 91 166 97 195
3 14 12 52 19 85 21 95 15 227 -14 340 -11 40 -72 177 -89 199 -5 6 -37 45
-70 88 -66 83 -147 161 -219 210 -25 17 -48 35 -51 38 -7 10 -229 120 -238
118 -4 -1 -14 2 -22 5 -16 7 -117 32 -165 42 -16 3 -55 8 -85 11 -30 2 -70 6
-88 7 -18 2 -34 2 -35 1z"/>
</g>
</svg>
